<mxfile host="app.diagrams.net" modified="2021-07-22T07:38:36.029Z" agent="5.0 (X11; Linux x86_64) AppleWebKit/537.36 (KHTML, like Gecko) Chrome/91.0.4472.114 Safari/537.36" etag="j45VYsIhZIUPvPqHOAVL" version="14.8.3" type="github">
  <diagram id="d7ncxUdG0fSYbnnoOzT6" name="第 1 页">
    <mxGraphModel dx="1203" dy="483" grid="1" gridSize="10" guides="1" tooltips="1" connect="1" arrows="1" fold="1" page="1" pageScale="1" pageWidth="827" pageHeight="1169" math="0" shadow="0">
      <root>
        <mxCell id="0" />
        <mxCell id="1" parent="0" />
        <mxCell id="j5datLd3I860JyzaHBSL-4" value="" style="group" vertex="1" connectable="0" parent="1">
          <mxGeometry x="240" y="90" width="230" height="350" as="geometry" />
        </mxCell>
        <mxCell id="j5datLd3I860JyzaHBSL-3" value="Live File System" style="shape=cylinder3;whiteSpace=wrap;html=1;boundedLbl=1;backgroundOutline=1;size=15;gradientColor=#7ea6e0;fillColor=#dae8fc;strokeColor=#6c8ebf;" vertex="1" parent="j5datLd3I860JyzaHBSL-4">
          <mxGeometry y="253.44827586206895" width="230" height="96.55172413793103" as="geometry" />
        </mxCell>
        <mxCell id="j5datLd3I860JyzaHBSL-2" value="Real File System" style="shape=cylinder3;whiteSpace=wrap;html=1;boundedLbl=1;backgroundOutline=1;size=15;fillColor=#f5f5f5;strokeColor=#666666;gradientColor=#b3b3b3;" vertex="1" parent="j5datLd3I860JyzaHBSL-4">
          <mxGeometry y="60.3448275862069" width="230" height="229.3103448275862" as="geometry" />
        </mxCell>
        <mxCell id="j5datLd3I860JyzaHBSL-1" value="Uboot and boot" style="shape=cylinder3;whiteSpace=wrap;html=1;boundedLbl=1;backgroundOutline=1;size=15;fillColor=#f8cecc;gradientColor=#ea6b66;strokeColor=#b85450;" vertex="1" parent="j5datLd3I860JyzaHBSL-4">
          <mxGeometry width="230" height="96.55172413793103" as="geometry" />
        </mxCell>
        <mxCell id="j5datLd3I860JyzaHBSL-8" value="" style="line;strokeWidth=2;html=1;fillColor=#FF3333;" vertex="1" parent="1">
          <mxGeometry x="70" y="100" width="160" height="10" as="geometry" />
        </mxCell>
        <mxCell id="j5datLd3I860JyzaHBSL-9" value="" style="line;strokeWidth=2;html=1;fillColor=#FF3333;" vertex="1" parent="1">
          <mxGeometry x="70" y="420" width="160" height="10" as="geometry" />
        </mxCell>
        <mxCell id="j5datLd3I860JyzaHBSL-10" value="" style="line;strokeWidth=2;html=1;fillColor=#FF3333;dashed=1;" vertex="1" parent="1">
          <mxGeometry x="70" y="170" width="160" height="10" as="geometry" />
        </mxCell>
        <mxCell id="j5datLd3I860JyzaHBSL-11" value="" style="line;strokeWidth=2;html=1;fillColor=#FF3333;dashed=1;" vertex="1" parent="1">
          <mxGeometry x="70" y="360" width="160" height="10" as="geometry" />
        </mxCell>
        <mxCell id="j5datLd3I860JyzaHBSL-12" value="uboot，内核存储区域：&lt;br&gt;该区域负责存放uboot及内核相关组件，大小依据实际文件大小确定" style="text;html=1;strokeColor=none;fillColor=none;align=left;verticalAlign=middle;whiteSpace=wrap;rounded=0;dashed=1;" vertex="1" parent="1">
          <mxGeometry x="70" y="130" width="160" height="20" as="geometry" />
        </mxCell>
        <mxCell id="j5datLd3I860JyzaHBSL-13" value="live系统区域：&lt;br&gt;该区域负责提供安装器的运行环境以及存储实际根文件系统的压缩环境" style="text;html=1;strokeColor=none;fillColor=none;align=left;verticalAlign=middle;whiteSpace=wrap;rounded=0;dashed=1;textDirection=ltr;" vertex="1" parent="1">
          <mxGeometry x="70" y="370" width="160" height="50" as="geometry" />
        </mxCell>
        <mxCell id="j5datLd3I860JyzaHBSL-14" value="真实文件系统预留区域：&lt;br&gt;该区域初始状态无文件，由安装器解压的根文件系统填充" style="text;html=1;strokeColor=none;fillColor=none;align=left;verticalAlign=middle;whiteSpace=wrap;rounded=0;dashed=1;" vertex="1" parent="1">
          <mxGeometry x="70" y="180" width="160" height="180" as="geometry" />
        </mxCell>
      </root>
    </mxGraphModel>
  </diagram>
</mxfile>
